<svg xmlns="http://www.w3.org/2000/svg" viewBox="0 0 1051 1051">
    <g fill="none" fill-rule="evenodd">
        <circle cx="525" cy="525" r="383" fill="#FFF"/>
        <circle cx="525.5" cy="525.5" r="509.5" stroke="#FFF" stroke-width="10"/>
        <g fill="#D80027" fill-rule="nonzero">
            <path d="M741.191 288.968H308.808c-21.951 0-39.808 17.857-39.808 39.807v263.81c0 21.958 17.857 39.823 39.808 39.823h131.468c-3.081 16.557-17.626 29.135-35.063 29.135a7.602 7.602 0 0 0-6.803 4.208l-17.713 35.485a7.603 7.603 0 0 0 6.803 11h174.253v28.642c0 11.112 9.041 20.153 20.153 20.153h134.582c11.112 0 20.153-9.041 20.153-20.153v-60.21a7.605 7.605 0 0 0-15.208 0v18.58H576.959v-151.12h144.472v107.195a7.605 7.605 0 0 0 15.208 0v-22.914h4.552c21.95 0 39.808-17.864 39.808-39.823V328.775c.001-21.95-17.857-39.807-39.808-39.807zM561.752 661.543h-75.274a7.605 7.605 0 0 0 0 15.208h75.274v20.277h-161.96l10.122-20.277h51.217a7.605 7.605 0 0 0 0-15.208h-19.686c7.606-7.725 12.777-17.853 14.231-29.135h106.076v29.135zm159.679 52.915v26.423a4.95 4.95 0 0 1-4.945 4.945H581.904a4.95 4.95 0 0 1-4.945-4.945v-26.423h144.472zm0-181.538H576.959v-26.423a4.95 4.95 0 0 1 4.945-4.945h134.582a4.95 4.95 0 0 1 4.945 4.945v26.423zm44.36 59.666c.001 13.573-11.035 24.615-24.6 24.615h-4.552v-39.189h29.152v14.574zm.001-29.784H736.64v-56.304c0-11.112-9.041-20.153-20.153-20.153H581.904c-11.112 0-20.153 9.041-20.153 20.153v33.919c0 .036-.005.072-.005.107s.005.072.005.107v22.17H343.523a7.605 7.605 0 0 0 0 15.208h218.229v39.189H308.808c-13.565.001-24.6-11.041-24.6-24.614V578.01h33.968a7.605 7.605 0 0 0 0-15.208h-33.968V328.775c0-13.565 11.035-24.6 24.6-24.6h432.385c13.565 0 24.6 11.035 24.6 24.6v234.027h-.001z"/>
            <path d="M573.782 362.954c-75.245 0-136.462 61.217-136.462 136.462a7.605 7.605 0 0 0 15.208 0c0-66.86 54.394-121.254 121.254-121.254a7.605 7.605 0 0 0 0-15.208z"/>
            <path d="M573.782 405.669c-51.692 0-93.747 42.054-93.747 93.747a7.605 7.605 0 0 0 15.208 0c0-43.307 35.232-78.539 78.539-78.539a7.605 7.605 0 0 0 0-15.208z"/>
            <path d="M573.782 448.385c-28.139 0-51.031 22.892-51.031 51.031a7.605 7.605 0 0 0 15.208 0c0-19.753 16.07-35.823 35.823-35.823a7.605 7.605 0 0 0 0-15.208z"/>
          </g>
      </g>
</svg>
